<svg xmlns="http://www.w3.org/2000/svg" viewBox="0 0 64 64" fill="none">
  <defs>
    <linearGradient id="grad" x1="0%" y1="0%" x2="100%" y2="100%">
      <stop offset="0%" style="stop-color:#8b5cf6"/>
      <stop offset="100%" style="stop-color:#06b6d4"/>
    </linearGradient>
  </defs>
  <!-- Rounded square background -->
  <rect x="4" y="4" width="56" height="56" rx="14" fill="url(#grad)"/>
  <!-- Sparkles icon (simplified) -->
  <path d="M32 16L34.5 26.5L45 29L34.5 31.5L32 42L29.5 31.5L19 29L29.5 26.5L32 16Z" fill="white"/>
  <path d="M46 36L47.5 41.5L53 43L47.5 44.5L46 50L44.5 44.5L39 43L44.5 41.5L46 36Z" fill="white" opacity="0.8"/>
  <path d="M22 38L23 42L27 43L23 44L22 48L21 44L17 43L21 42L22 38Z" fill="white" opacity="0.6"/>
</svg>